<svg width="42" height="42" viewBox="0 0 42 42" fill="none" xmlns="http://www.w3.org/2000/svg">
<path d="M17.5048 21.0538C17.5048 19.1191 19.0722 17.5504 21.0063 17.5504C22.9404 17.5504 24.5087 19.1191 24.5087 21.0538C24.5087 22.9884 22.9404 24.5572 21.0063 24.5572C19.0722 24.5572 17.5048 22.9884 17.5048 21.0538ZM15.6114 21.0538C15.6114 24.0342 18.0267 26.4502 21.0063 26.4502C23.9859 26.4502 26.4012 24.0342 26.4012 21.0538C26.4012 18.0733 23.9859 15.6574 21.0063 15.6574C18.0267 15.6574 15.6114 18.0733 15.6114 21.0538ZM25.354 15.4434C25.3539 15.6928 25.4277 15.9367 25.5662 16.1441C25.7046 16.3516 25.9015 16.5133 26.1318 16.6088C26.3621 16.7044 26.6156 16.7294 26.8602 16.6809C27.1048 16.6323 27.3295 16.5123 27.5059 16.336C27.6823 16.1597 27.8024 15.935 27.8512 15.6904C27.8999 15.4458 27.875 15.1922 27.7797 14.9617C27.6844 14.7313 27.5229 14.5342 27.3156 14.3956C27.1083 14.2569 26.8646 14.1829 26.6152 14.1828H26.6147C26.2805 14.1829 25.96 14.3158 25.7236 14.5521C25.4872 14.7885 25.3543 15.109 25.354 15.4434ZM16.7618 29.6081C15.7374 29.5615 15.1807 29.3908 14.8107 29.2466C14.3202 29.0556 13.9702 28.8281 13.6022 28.4605C13.2342 28.0929 13.0065 27.7432 12.8163 27.2525C12.6721 26.8826 12.5015 26.3255 12.4549 25.3009C12.404 24.1931 12.3938 23.8603 12.3938 21.0539C12.3938 18.2474 12.4048 17.9155 12.4549 16.8068C12.5016 15.7822 12.6735 15.2262 12.8163 14.8552C13.0073 14.3645 13.2347 14.0144 13.6022 13.6464C13.9697 13.2783 14.3193 13.0504 14.8107 12.8603C15.1805 12.716 15.7374 12.5453 16.7618 12.4987C17.8692 12.4478 18.2019 12.4376 21.0063 12.4376C23.8107 12.4376 24.1437 12.4486 25.2521 12.4987C26.2764 12.5454 26.8323 12.7173 27.2032 12.8603C27.6937 13.0504 28.0437 13.2788 28.4116 13.6464C28.7796 14.0139 29.0066 14.3645 29.1975 14.8552C29.3417 15.2251 29.5124 15.7822 29.5589 16.8068C29.6099 17.9155 29.62 18.2474 29.62 21.0539C29.62 23.8603 29.6099 24.1922 29.5589 25.3009C29.5123 26.3255 29.3408 26.8824 29.1975 27.2525C29.0066 27.7432 28.7791 28.0933 28.4116 28.4605C28.0442 28.8277 27.6937 29.0556 27.2032 29.2466C26.8333 29.3909 26.2764 29.5615 25.2521 29.6081C24.1447 29.6591 23.812 29.6692 21.0063 29.6692C18.2006 29.6692 17.8689 29.6591 16.7618 29.6081ZM16.6748 10.6081C15.5563 10.659 14.792 10.8364 14.1246 11.0962C13.4334 11.3645 12.8482 11.7244 12.2635 12.3084C11.6787 12.8924 11.3198 13.4786 11.0516 14.1701C10.7919 14.8381 10.6146 15.6022 10.5636 16.721C10.5119 17.8415 10.5 18.1998 10.5 21.0538C10.5 23.9078 10.5119 24.266 10.5636 25.3866C10.6146 26.5054 10.7919 27.2694 11.0516 27.9375C11.3198 28.6285 11.6788 29.2154 12.2635 29.7991C12.8481 30.3829 13.4334 30.7423 14.1246 31.0113C14.7933 31.2711 15.5563 31.4485 16.6748 31.4995C17.7956 31.5504 18.1531 31.5631 21.0063 31.5631C23.8595 31.5631 24.2176 31.5512 25.3378 31.4995C26.4564 31.4485 27.2201 31.2711 27.888 31.0113C28.5788 30.7423 29.1644 30.3831 29.7491 29.7991C30.3339 29.2151 30.692 28.6285 30.961 27.9375C31.2207 27.2694 31.3989 26.5053 31.449 25.3866C31.4999 24.2652 31.5118 23.9078 31.5118 21.0538C31.5118 18.1998 31.4999 17.8415 31.449 16.721C31.398 15.6021 31.2207 14.8377 30.961 14.1701C30.692 13.4791 30.333 12.8933 29.7491 12.3084C29.1653 11.7235 28.5788 11.3645 27.8888 11.0962C27.2201 10.8364 26.4563 10.6582 25.3387 10.6081C24.2185 10.5571 23.8603 10.5444 21.0071 10.5444C18.154 10.5444 17.7956 10.5563 16.6748 10.6081Z" fill="white"/>
</svg>
