<svg width="42" height="42" viewBox="0 0 42 42" fill="none" xmlns="http://www.w3.org/2000/svg">
<path d="M16.169 29.5108V18.1654H12.4013V29.5108H16.1694H16.169ZM14.2859 16.6167C15.5995 16.6167 16.4173 15.7455 16.4173 14.6567C16.3927 13.5432 15.5995 12.6963 14.3109 12.6963C13.0214 12.6963 12.1792 13.5432 12.1792 14.6566C12.1792 15.7454 12.9967 16.6166 14.2612 16.6166H14.2856L14.2859 16.6167ZM18.2544 29.5108H22.0218V23.1757C22.0218 22.8371 22.0464 22.4976 22.146 22.2557C22.4182 21.5779 23.0381 20.8764 24.0792 20.8764C25.4421 20.8764 25.9877 21.9167 25.9877 23.442V29.5108H29.755V23.0057C29.755 19.521 27.8965 17.8994 25.4178 17.8994C23.3855 17.8994 22.4929 19.0363 21.997 19.8106H22.0221V18.1658H18.2546C18.3038 19.2301 18.2543 29.5112 18.2543 29.5112L18.2544 29.5108Z" fill="white"/>
</svg>
