<svg width="42" height="42" viewBox="0 0 42 42" fill="none" xmlns="http://www.w3.org/2000/svg">
<path d="M18.8185 24.6006L25.0377 21.0001L18.8185 17.3996V24.6006Z" fill="white"/>
<path d="M32.6813 15.2232C32.4071 14.1923 31.5959 13.379 30.5638 13.1003L32.6813 15.2232ZM32.6813 15.2232C33.1802 17.0941 33.1802 21.0001 33.1802 21.0001L32.6813 15.2232ZM32.1981 15.3517L32.1982 15.352C32.4326 16.2309 32.5561 17.6269 32.6185 18.839C32.6494 19.4375 32.6648 19.9788 32.6725 20.3704C32.6764 20.5661 32.6783 20.7242 32.6793 20.833C32.6798 20.8874 32.68 20.9295 32.6801 20.9579L32.6802 20.9899L32.6802 20.9978L32.6802 20.9996V21V21.0001V21.0002V21.0006L32.6802 21.0024L32.6802 21.0103L32.6801 21.0423C32.68 21.0707 32.6798 21.1128 32.6793 21.1672C32.6783 21.276 32.6764 21.4341 32.6725 21.6298C32.6648 22.0214 32.6494 22.5626 32.6185 23.1612C32.5561 24.3732 32.4326 25.769 32.1983 26.6479C31.9661 27.5112 31.2888 28.1885 30.4347 28.4169L30.4344 28.417C30.0198 28.5281 29.2469 28.6198 28.2787 28.6904C27.3245 28.76 26.2216 28.8066 25.1724 28.8378C24.1239 28.8689 23.133 28.8845 22.404 28.8923C22.0395 28.8962 21.7408 28.8982 21.5333 28.8991C21.4295 28.8996 21.3486 28.8999 21.2937 28.9L21.2312 28.9001L21.2154 28.9001L21.2115 28.9001H21.2105H21.2103L21.2102 29.4001L21.2102 28.9001H21.21H21.209L21.2051 28.9001L21.1892 28.9001L21.1268 28.9C21.072 28.8999 20.9911 28.8996 20.8874 28.8991C20.6799 28.8982 20.3813 28.8962 20.017 28.8923C19.2883 28.8845 18.2977 28.8689 17.2495 28.8378C16.2005 28.8066 15.0978 28.76 14.1434 28.6904C13.1755 28.6198 12.4022 28.5282 11.9864 28.417C11.1266 28.1846 10.4505 27.5061 10.2223 26.6485L10.2223 26.6482C9.9879 25.7693 9.86439 24.3733 9.80194 23.1612C9.77109 22.5626 9.75565 22.0214 9.74793 21.6298C9.74407 21.4341 9.74215 21.276 9.74119 21.1672C9.74071 21.1128 9.74047 21.0707 9.74035 21.0423L9.74025 21.0103L9.74024 21.0024L9.74023 21.0006L9.74023 21.0002V21.0001V21.0001V21L9.74023 20.9996L9.74024 20.9978L9.74025 20.9899L9.74035 20.9579C9.74047 20.9295 9.74071 20.8874 9.74119 20.833C9.74215 20.7242 9.74407 20.5661 9.74793 20.3704C9.75565 19.9788 9.77109 19.4375 9.80194 18.839C9.86438 17.6271 9.98786 16.2314 10.2221 15.3525C10.4543 14.489 11.1316 13.8117 11.9858 13.5833L11.9858 13.5833C12.4015 13.4721 13.175 13.3804 14.1434 13.3098C15.0978 13.2402 16.2005 13.1936 17.2495 13.1624C18.2977 13.1313 19.2883 13.1157 20.017 13.1079C20.3813 13.104 20.6799 13.102 20.8874 13.1011C20.9911 13.1006 21.072 13.1003 21.1268 13.1002L21.1892 13.1001L21.2051 13.1001L21.209 13.1001L21.21 13.1001H21.2102L21.2102 12.6001L21.2103 13.1001H21.2105L21.2115 13.1001L21.2154 13.1001L21.2312 13.1001L21.2937 13.1002C21.3486 13.1003 21.4295 13.1006 21.5333 13.1011C21.7408 13.102 22.0395 13.104 22.404 13.1079C23.133 13.1157 24.1239 13.1313 25.1724 13.1624C26.2216 13.1936 27.3245 13.2402 28.2787 13.3098C29.2466 13.3804 30.0194 13.4721 30.434 13.5831C31.2939 13.8156 31.97 14.4941 32.1981 15.3517ZM18.3185 24.6006V25.4679L19.069 25.0334L25.2883 21.4328L26.0357 21.0001L25.2883 20.5674L19.069 16.9668L18.3185 16.5323V17.3996V24.6006ZM19.3185 18.2668L24.0398 21.0001L19.3185 23.7334V18.2668Z" stroke="white"/>
</svg>
